<?xml version="1.0" standalone="no"?>
<!DOCTYPE svg PUBLIC "-//W3C//DTD SVG 20010904//EN"
 "http://www.w3.org/TR/2001/REC-SVG-20010904/DTD/svg10.dtd">
<svg version="1.0" xmlns="http://www.w3.org/2000/svg"
 width="700.000000pt" height="700.000000pt" viewBox="0 0 700.000000 700.000000"
 preserveAspectRatio="xMidYMid meet">
<metadata>
Created by potrace 1.14, written by Peter Selinger 2001-2017
</metadata>
<g transform="translate(0.000000,700.000000) scale(0.100000,-0.100000)"
fill="#000000" stroke="none">
<path d="M6465 6454 c-84 -15 -74 -13 -355 -70 -124 -25 -236 -47 -250 -50
-14 -2 -36 -7 -50 -10 -14 -3 -36 -8 -50 -10 -14 -2 -36 -7 -50 -10 -14 -3
-36 -8 -50 -11 -14 -2 -59 -11 -100 -20 -41 -8 -84 -16 -95 -18 -11 -1 -65
-12 -120 -23 -55 -12 -116 -24 -135 -27 -120 -21 -229 -79 -293 -157 -44 -54
-84 -137 -96 -204 -6 -30 -10 -788 -9 -1932 0 -1036 -2 -1885 -5 -1888 -3 -3
-25 5 -49 19 -99 57 -294 118 -428 134 -82 9 -278 9 -350 -1 -87 -12 -211 -43
-284 -70 -72 -27 -220 -102 -239 -121 -7 -6 -32 -25 -57 -42 -56 -39 -144
-130 -197 -203 -194 -270 -184 -626 26 -890 126 -158 308 -280 521 -348 52
-17 111 -33 130 -36 19 -3 46 -8 60 -11 240 -49 581 3 807 122 266 140 429
339 487 593 14 57 16 302 16 1894 0 1006 2 1832 5 1834 3 4 295 64 425 88 14
2 81 16 150 30 69 14 136 28 150 30 14 2 36 7 50 10 14 3 36 8 50 10 14 3 55
11 92 19 36 8 83 17 103 21 45 7 33 5 216 43 80 16 161 33 180 36 44 7 221 43
282 56 l47 11 0 403 c0 227 -4 426 -10 456 -12 65 -59 162 -100 206 -112 122
-255 168 -425 137z"/>
<path d="M135 5670 c-187 -81 -170 -354 26 -410 21 -6 648 -10 1709 -10 1620
0 1676 1 1715 19 88 42 129 103 130 196 0 70 -19 117 -67 160 -72 67 70 62
-1788 62 -1575 0 -1688 -1 -1725 -17z"/>
<path d="M150 3924 c-77 -22 -136 -95 -146 -178 -11 -85 26 -162 105 -216 l36
-25 1710 0 1710 0 42 24 c95 55 139 193 91 284 -27 51 -82 98 -132 111 -73 20
-3347 20 -3416 0z"/>
<path d="M150 2174 c-93 -27 -157 -124 -146 -220 7 -66 28 -109 72 -149 63
-57 49 -56 934 -53 l815 3 39 27 c124 86 139 251 31 346 -24 21 -60 43 -80 49
-57 18 -1606 15 -1665 -3z"/>
</g>
</svg>
